<svg width="17.766113" height="13.322266" viewBox="0 0 17.7661 13.3223" fill="none" xmlns="http://www.w3.org/2000/svg" xmlns:xlink="http://www.w3.org/1999/xlink">
	<desc>
			Created with Pixso.
	</desc>
	<defs/>
	<path id="Arrow 1" d="M2.41 6.66L7.36 1.71C7.76 1.31 7.76 0.69 7.36 0.29C6.97 -0.1 6.35 -0.1 5.95 0.29L0.29 5.95C-0.1 6.35 -0.1 6.97 0.29 7.36L5.95 13.02C6.35 13.42 6.97 13.42 7.36 13.02C7.76 12.62 7.76 12 7.36 11.61L2.41 6.66Z" fill="#FFFFFF" fill-opacity="1.000000" fill-rule="nonzero"/>
	<path id="Arrow 1" d="M3.41 5.66L7.36 1.71C7.76 1.31 7.76 0.69 7.36 0.29C6.97 -0.1 6.35 -0.1 5.95 0.29L0.29 5.95C-0.1 6.35 -0.1 6.97 0.29 7.36L5.95 13.02C6.35 13.42 6.97 13.42 7.36 13.02C7.76 12.62 7.76 12 7.36 11.61L3.41 7.66L17.76 7.66L17.76 5.66L3.41 5.66Z" fill="#011C44" fill-opacity="1.000000" fill-rule="evenodd"/>
</svg>
