<svg width="43.384766" height="33.554688" viewBox="0 0 43.3848 33.5547" fill="none" xmlns="http://www.w3.org/2000/svg" xmlns:xlink="http://www.w3.org/1999/xlink">
	<desc>
			Created with Pixso.
	</desc>
	<defs/>
	<path id="Vector" d="M14.03 10.88L0.73 10.88C0.33 10.88 0 11.19 0 11.59L0 15.84C0 16.23 0.33 16.55 0.73 16.55L1.47 16.55L1.47 32.84C1.47 33.23 1.8 33.55 2.21 33.55L12.55 33.55C12.96 33.55 13.29 33.23 13.29 32.84L13.29 30.01L13.29 19.38L13.29 16.55L14.03 16.55C14.43 16.55 14.76 16.23 14.76 15.84L14.76 11.59C14.76 11.19 14.43 10.88 14.03 10.88ZM5.9 24.34L5.9 22.92L10.33 22.92L10.33 21.51L5.9 21.51L5.9 20.09L11.81 20.09L11.81 29.3L5.9 29.3L5.9 25.76L7.38 25.76L7.38 24.34L5.9 24.34ZM11.81 18.67L5.16 18.67C4.76 18.67 4.43 18.99 4.43 19.38L4.43 30.01C4.43 30.4 4.76 30.72 5.16 30.72L11.81 30.72L11.81 32.13L2.95 32.13L2.95 16.55L11.81 16.55L11.81 18.67ZM13.29 15.13L12.55 15.13L2.21 15.13L1.47 15.13L1.47 12.29L13.29 12.29L13.29 15.13Z" fill="#2B7FFF" fill-opacity="1.000000" fill-rule="nonzero"/>
	<path id="Vector" d="M23.81 11.01L23.81 5.83C23.81 5.43 23.48 5.1 23.07 5.1L22.33 5.1L22.33 1.45L23.81 1.45L23.81 0L15.69 0L15.69 1.45L20.86 1.45L20.86 5.1L20.12 5.1C19.71 5.1 19.38 5.43 19.38 5.83L19.38 11.01C17.7 11.35 16.43 12.82 16.43 14.58L16.43 16.04L16.43 29.9L16.43 32.82C16.43 33.22 16.76 33.55 17.16 33.55L26.03 33.55C26.43 33.55 26.76 33.22 26.76 32.82L26.76 29.9L26.76 16.04L26.76 14.58C26.76 12.82 25.49 11.35 23.81 11.01ZM20.86 6.56L22.33 6.56L22.33 10.94L20.86 10.94L20.86 6.56ZM20.12 12.4L23.07 12.4C24.29 12.4 25.29 13.38 25.29 14.58L25.29 15.31L17.9 15.31L17.9 14.58C17.9 13.38 18.9 12.4 20.12 12.4ZM25.29 29.17L17.9 29.17L17.9 27.71L20.86 27.71L20.86 26.26L17.9 26.26L17.9 16.77L25.29 16.77L25.29 29.17ZM17.9 32.09L17.9 30.63L25.29 30.63L25.29 32.09L17.9 32.09Z" fill="#2B7FFF" fill-opacity="1.000000" fill-rule="nonzero"/>
	<path id="Vector" d="M42.69 9.97L30.23 9.97C29.84 9.97 29.53 10.29 29.53 10.69L29.53 32.84C29.53 33.23 29.84 33.55 30.23 33.55L42.69 33.55C43.07 33.55 43.38 33.23 43.38 32.84L43.38 10.69C43.38 10.29 43.07 9.97 42.69 9.97ZM41.99 32.12L30.92 32.12L30.92 11.4L41.99 11.4L41.99 32.12Z" fill="#2B7FFF" fill-opacity="1.000000" fill-rule="nonzero"/>
	<path id="Vector" d="M9.23 24.48L11.07 24.48L11.07 25.39L9.23 25.39L9.23 24.48Z" fill="#2B7FFF" fill-opacity="1.000000" fill-rule="evenodd"/>
	<path id="Vector" d="M22.15 26.29L24 26.29L24 28.11L22.15 28.11L22.15 26.29Z" fill="#2B7FFF" fill-opacity="1.000000" fill-rule="evenodd"/>
	<path id="Vector" d="M21.69 24.48C23.47 24.48 24.92 23.06 24.92 21.31C24.92 19.56 23.47 18.13 21.69 18.13C19.91 18.13 18.46 19.56 18.46 21.31C18.46 23.06 19.91 24.48 21.69 24.48ZM21.69 19.72C22.58 19.72 23.3 20.43 23.3 21.31C23.3 22.18 22.58 22.89 21.69 22.89C20.8 22.89 20.07 22.18 20.07 21.31C20.07 20.43 20.8 19.72 21.69 19.72Z" fill="#2B7FFF" fill-opacity="1.000000" fill-rule="nonzero"/>
	<path id="Vector" d="M34.73 17.23L38.19 17.23C39.52 17.23 40.61 16.21 40.61 14.96C40.61 13.71 39.52 12.69 38.19 12.69L34.73 12.69C33.39 12.69 32.3 13.71 32.3 14.96C32.3 16.21 33.39 17.23 34.73 17.23ZM39.23 14.96C39.23 15.49 38.76 15.93 38.19 15.93L37.15 15.93L37.15 13.99L38.19 13.99C38.76 13.99 39.23 14.42 39.23 14.96ZM34.73 13.99L35.76 13.99L35.76 15.93L34.73 15.93C34.15 15.93 33.69 15.49 33.69 14.96C33.69 14.42 34.15 13.99 34.73 13.99Z" fill="#2B7FFF" fill-opacity="1.000000" fill-rule="nonzero"/>
	<path id="Vector" d="M34.73 24.48L38.19 24.48C39.52 24.48 40.61 23.26 40.61 21.76C40.61 20.26 39.52 19.04 38.19 19.04L34.73 19.04C33.39 19.04 32.3 20.26 32.3 21.76C32.3 23.26 33.39 24.48 34.73 24.48ZM39.23 21.76C39.23 22.4 38.76 22.93 38.19 22.93L37.15 22.93L37.15 20.59L38.19 20.59C38.76 20.59 39.23 21.12 39.23 21.76ZM34.73 20.59L35.76 20.59L35.76 22.93L34.73 22.93C34.15 22.93 33.69 22.4 33.69 21.76C33.69 21.12 34.15 20.59 34.73 20.59Z" fill="#2B7FFF" fill-opacity="1.000000" fill-rule="nonzero"/>
	<path id="Vector" d="M34.73 30.83L38.19 30.83C39.52 30.83 40.61 29.61 40.61 28.11C40.61 26.61 39.52 25.39 38.19 25.39L34.73 25.39C33.39 25.39 32.3 26.61 32.3 28.11C32.3 29.61 33.39 30.83 34.73 30.83ZM39.23 28.11C39.23 28.75 38.76 29.27 38.19 29.27L37.15 29.27L37.15 26.94L38.19 26.94C38.76 26.94 39.23 27.47 39.23 28.11ZM34.73 26.94L35.76 26.94L35.76 29.27L34.73 29.27C34.15 29.27 33.69 28.75 33.69 28.11C33.69 27.47 34.15 26.94 34.73 26.94Z" fill="#2B7FFF" fill-opacity="1.000000" fill-rule="nonzero"/>
</svg>
