<svg width="42.955566" height="35.833740" viewBox="0 0 42.9556 35.8337" fill="none" xmlns="http://www.w3.org/2000/svg" xmlns:xlink="http://www.w3.org/1999/xlink">
	<desc>
			Created with Pixso.
	</desc>
	<defs/>
	<path id="Vector" d="M42.01 8.38C41.63 8.03 41.17 7.81 40.69 7.74C40.2 7.67 39.7 7.74 39.25 7.96L29.79 12.58C29.74 12.61 29.7 12.62 29.65 12.63C29.6 12.64 29.56 12.63 29.51 12.61C29.46 12.6 29.42 12.57 29.39 12.54C29.35 12.51 29.32 12.47 29.3 12.42L23.77 1.49C23.54 1.04 23.21 0.66 22.81 0.4C22.41 0.13 21.95 0 21.48 0C21.01 0 20.55 0.13 20.15 0.4C19.75 0.66 19.42 1.04 19.19 1.49L13.66 12.42C13.64 12.47 13.61 12.51 13.57 12.54C13.54 12.57 13.49 12.6 13.45 12.61C13.4 12.63 13.36 12.64 13.31 12.63C13.26 12.62 13.21 12.61 13.17 12.58L3.7 7.96C3.26 7.74 2.76 7.66 2.27 7.73C1.79 7.8 1.33 8.02 0.95 8.37C0.57 8.71 0.29 9.16 0.13 9.68C-0.03 10.19 -0.05 10.74 0.07 11.26L4.85 33.6C4.93 33.98 5.08 34.33 5.29 34.65C5.5 34.96 5.76 35.22 6.07 35.42C6.47 35.69 6.93 35.83 7.4 35.83C7.64 35.83 7.88 35.79 8.11 35.73C16.85 33.07 26.08 33.06 34.83 35.71C35.17 35.81 35.53 35.84 35.88 35.8C36.23 35.75 36.57 35.62 36.88 35.43C37.19 35.23 37.45 34.97 37.66 34.65C37.88 34.34 38.03 33.98 38.11 33.6L42.87 11.26C42.99 10.74 42.97 10.19 42.82 9.68C42.67 9.17 42.39 8.72 42.01 8.38ZM40.7 10.69L35.92 33.02C35.89 33.13 35.83 33.23 35.75 33.29C35.65 33.34 35.55 33.36 35.45 33.33C26.31 30.56 16.65 30.56 7.51 33.33C7.46 33.35 7.41 33.35 7.36 33.35C7.31 33.34 7.26 33.32 7.22 33.29C7.17 33.26 7.13 33.22 7.1 33.18C7.07 33.13 7.05 33.08 7.04 33.02L2.26 10.69C2.25 10.63 2.25 10.56 2.26 10.5C2.28 10.44 2.3 10.38 2.34 10.33C2.38 10.28 2.42 10.24 2.47 10.22C2.52 10.19 2.58 10.17 2.64 10.17L2.79 10.21L12.27 14.85C12.87 15.15 13.55 15.19 14.17 14.96C14.79 14.73 15.31 14.25 15.63 13.62L21.16 2.68C21.19 2.62 21.24 2.56 21.29 2.53C21.35 2.49 21.41 2.47 21.48 2.47C21.55 2.47 21.61 2.49 21.67 2.53C21.72 2.56 21.77 2.62 21.8 2.68L27.33 13.62C27.64 14.25 28.16 14.73 28.79 14.96C29.41 15.19 30.09 15.15 30.69 14.85L40.17 10.21C40.24 10.18 40.31 10.17 40.38 10.18C40.45 10.19 40.51 10.22 40.57 10.27C40.62 10.32 40.66 10.39 40.69 10.46C40.71 10.53 40.71 10.61 40.7 10.69ZM28.6 26.36C28.57 26.67 28.44 26.95 28.23 27.15C28.03 27.36 27.76 27.47 27.48 27.48L27.37 27.48C23.45 27.04 19.51 27.04 15.59 27.48C15.3 27.51 15 27.41 14.77 27.21C14.54 27.01 14.39 26.71 14.35 26.38C14.33 26.06 14.42 25.73 14.61 25.47C14.8 25.22 15.07 25.06 15.37 25.02C19.43 24.55 23.53 24.55 27.59 25.02C27.89 25.06 28.15 25.22 28.34 25.47C28.53 25.72 28.63 26.04 28.6 26.36Z" fill="#2B7FFF" fill-opacity="1.000000" fill-rule="nonzero"/>
</svg>
