<svg aria-hidden="true" style="position: absolute; width: 0; height: 0; overflow: hidden;" version="1.1" xmlns="http://www.w3.org/2000/svg" xmlns:xlink="http://www.w3.org/1999/xlink">
<defs>
<symbol id="icon-phone" viewBox="0 0 28 32">
<path d="M26.352 23.343l-0.19-0.222c-1.446-1.837-2.66-2.787-3.695-2.914-0.897-0.127-1.763 0.496-2.692 1.14l-0.982 0.612c-0.116 0.063-0.243 0.106-0.348 0.137-0.581 0.169-2.038 0.264-2.861-0.496-0.961-0.876-2.449-2.481-3.6-3.885-1.109-1.457-2.323-3.273-2.967-4.413-0.528-0.961-0.084-2.323 0.222-2.819 0.053-0.095 0.127-0.19 0.222-0.296l0.866-0.802c0.011-0.011 0.021-0.021 0.032-0.032s0.021-0.011 0.032-0.021c0.781-0.655 1.594-1.341 1.71-2.217 0.127-1.035-0.517-2.428-1.964-4.255l-0.179-0.232c-0.897-1.151-2.259-2.893-4.202-2.608-0.771 0.116-1.457 0.38-2.164 0.824-0.011 0.011-0.011 0.011-0.011 0.021-0.011 0-0.021 0-0.021 0l-0.982 0.739c-0.011 0-0.021 0.011-0.032 0.021 0 0.011-0.021 0.011-0.021 0.021-0.116 0.095-0.232 0.19-0.348 0.296-0.992 0.887-3.157 3.463-1.679 8.245 0.95 3.083 2.914 6.683 5.691 10.431l-0.032 0.021 1.531 1.911 0.011-0.011c3.009 3.558 6.071 6.313 8.879 7.971 1.869 1.119 3.505 1.489 4.856 1.489 1.763 0 3.030-0.644 3.674-1.056l0.401-0.264c0.042-0.032 0.074-0.074 0.106-0.116l0.876-0.655c0-0.011 0.011-0.021 0.021-0.032 0 0 0.011 0 0.021-0.011 0.612-0.56 1.045-1.151 1.341-1.858 0.771-1.795-0.612-3.526-1.52-4.666zM26.837 27.566c-0.232 0.549-0.57 1.014-1.056 1.468l-1.299 0.971c-1.172 0.76-3.685 1.71-7.327-0.454-2.808-1.668-5.902-4.487-8.942-8.15l-0.813-1.035c-2.872-3.79-4.878-7.433-5.828-10.505-1.235-4.012 0.317-6.155 1.362-7.084 0.106-0.095 0.211-0.19 0.317-0.275v0l0.95-0.707c0.57-0.359 1.098-0.56 1.71-0.655 1.309-0.201 2.375 1.182 3.157 2.185l0.179 0.232c1.626 2.048 1.784 3.019 1.731 3.41-0.053 0.443-0.728 1.014-1.32 1.51l-0.084 0.063c0 0.011 0 0.011 0 0.011-0.011 0-0.011 0.011-0.021 0.011l-0.897 0.834c0 0-0.011 0.011-0.011 0.021-0.011 0-0.021 0-0.021 0.011-0.137 0.158-0.264 0.317-0.359 0.475-0.507 0.845-0.982 2.597-0.232 3.949 0.665 1.182 1.911 3.051 3.062 4.561 1.204 1.457 2.734 3.114 3.727 4.022 0.75 0.676 1.784 0.908 2.682 0.908 0.475 0 0.919-0.074 1.256-0.158 0.169-0.053 0.359-0.127 0.538-0.222 0.011 0 0.021-0.011 0.032-0.021 0 0 0.011 0 0.021 0l1.045-0.655c0.032-0.032 0.053-0.053 0.084-0.084l0.011 0.011c0.644-0.443 1.372-0.971 1.837-0.887 0.401 0.042 1.33 0.433 2.956 2.492l0.179 0.232c0.792 0.982 1.879 2.333 1.372 3.516z"></path>
</symbol>
<symbol id="icon-math" viewBox="0 0 29 32">
<path d="M14.384 0c-1.145 0-2.217 0.518-3.136 1.379-0.912 0.853-1.692 2.050-2.349 3.494-0.139 0.299-0.27 0.62-0.394 0.941-0.336-0.051-0.671-0.095-1.014-0.131-0.394-0.036-0.78-0.066-1.152-0.073-1.123-0.029-2.144 0.088-3.049 0.357-1.196 0.365-2.188 1.036-2.764 2.028-0.569 0.999-0.656 2.188-0.372 3.406s0.926 2.495 1.853 3.786c0.197 0.27 0.401 0.54 0.62 0.81-0.212 0.263-0.416 0.532-0.62 0.81-0.926 1.291-1.568 2.567-1.853 3.786s-0.197 2.407 0.372 3.406c0.576 0.992 1.568 1.663 2.764 2.028 1.204 0.357 2.626 0.445 4.201 0.284 0.336-0.036 0.671-0.080 1.014-0.131 0.124 0.321 0.255 0.635 0.394 0.941 0.656 1.451 1.437 2.64 2.349 3.501 0.919 0.853 1.991 1.379 3.136 1.379 1.152 0 2.225-0.525 3.136-1.379 0.919-0.861 1.699-2.050 2.349-3.501 0.146-0.306 0.277-0.62 0.394-0.941 0.343 0.051 0.686 0.095 1.014 0.131 1.575 0.16 3.005 0.073 4.201-0.284 1.196-0.365 2.188-1.036 2.764-2.028 0.576-0.999 0.656-2.188 0.372-3.406s-0.926-2.494-1.853-3.786c-0.197-0.277-0.408-0.547-0.62-0.81 0.212-0.263 0.423-0.532 0.62-0.81 0.926-1.291 1.568-2.567 1.853-3.786s0.204-2.407-0.372-3.406c-0.576-0.992-1.561-1.663-2.764-2.028-0.897-0.27-1.926-0.387-3.049-0.357-0.372 0.007-0.759 0.036-1.152 0.073-0.328 0.036-0.671 0.080-1.014 0.131-0.124-0.314-0.255-0.635-0.394-0.941-0.649-1.444-1.43-2.64-2.349-3.494-0.912-0.861-1.984-1.379-3.136-1.379v0zM14.384 1.276c0.766 0 1.517 0.336 2.261 1.036 0.751 0.693 1.459 1.751 2.064 3.085 0.095 0.219 0.19 0.438 0.277 0.656-1.466 0.328-3.012 0.832-4.602 1.495-1.583-0.664-3.136-1.167-4.602-1.495 0.095-0.226 0.19-0.445 0.284-0.656 0.598-1.335 1.313-2.392 2.057-3.085 0.744-0.7 1.495-1.036 2.261-1.036v0zM5.937 6.885c0.124 0 0.248 0 0.372 0 0.343 0.007 0.693 0.029 1.058 0.066 0.233 0.029 0.467 0.058 0.715 0.088-0.452 1.437-0.795 3.027-1.014 4.734-1.371 1.036-2.575 2.13-3.589 3.239-0.153-0.19-0.292-0.379-0.438-0.576-0.853-1.189-1.408-2.327-1.641-3.326-0.233-0.992-0.146-1.809 0.233-2.473 0.387-0.664 1.050-1.145 2.028-1.444 0.642-0.197 1.408-0.299 2.276-0.306v0zM22.837 6.885c0.861 0.007 1.627 0.109 2.268 0.306 0.977 0.299 1.648 0.78 2.028 1.444 0.387 0.664 0.467 1.481 0.233 2.473-0.226 0.999-0.788 2.137-1.641 3.326-0.139 0.197-0.284 0.387-0.43 0.576-1.014-1.109-2.225-2.195-3.596-3.239-0.212-1.707-0.554-3.297-1.007-4.734 0.241-0.029 0.481-0.058 0.707-0.088 0.357-0.036 0.707-0.058 1.058-0.066 0.124 0 0.255 0 0.379 0v0zM19.424 7.272c0.336 1.058 0.62 2.217 0.831 3.465-0.678-0.46-1.371-0.89-2.086-1.298-0.707-0.408-1.43-0.795-2.166-1.152 1.189-0.445 2.334-0.78 3.421-1.014v0zM9.351 7.272c1.079 0.233 2.232 0.569 3.414 1.014-0.737 0.357-1.459 0.744-2.166 1.152s-1.4 0.839-2.079 1.298c0.212-1.247 0.489-2.407 0.832-3.465zM14.384 8.942c1.043 0.46 2.093 0.992 3.151 1.597 1.050 0.613 2.042 1.262 2.961 1.933 0.117 1.131 0.182 2.312 0.182 3.523 0 1.218-0.066 2.4-0.182 3.523-0.919 0.671-1.911 1.32-2.961 1.926-1.050 0.613-2.108 1.145-3.151 1.605-1.036-0.459-2.093-0.992-3.144-1.605-1.058-0.605-2.042-1.255-2.961-1.926-0.124-1.123-0.19-2.305-0.19-3.523s0.066-2.392 0.19-3.523c0.919-0.671 1.904-1.32 2.961-1.933 1.050-0.605 2.108-1.138 3.144-1.597v0zM14.471 10.868l-3.662 2.254 3.662 2.261 3.662-2.261-3.662-2.254zM6.9 13.545c-0.058 0.817-0.088 1.634-0.088 2.451 0 0.831 0.029 1.656 0.088 2.451-0.977-0.802-1.845-1.627-2.589-2.451 0.744-0.824 1.612-1.648 2.589-2.451zM21.874 13.545c0.97 0.802 1.838 1.627 2.582 2.451-0.744 0.824-1.612 1.648-2.582 2.451 0.058-0.817 0.088-1.634 0.088-2.451 0-0.832-0.029-1.656-0.088-2.451v0zM9.985 14.114v4.464l3.844 2.371v-4.457l-3.844-2.378zM18.95 14.121l-3.844 2.371v4.457l3.844-2.371v-4.457zM3.479 16.98c1.014 1.109 2.217 2.203 3.589 3.239 0.219 1.707 0.562 3.297 1.014 4.734-0.241 0.029-0.481 0.058-0.715 0.088-1.459 0.146-2.728 0.051-3.705-0.241-0.977-0.299-1.641-0.78-2.028-1.444-0.379-0.664-0.467-1.481-0.233-2.473 0.233-0.999 0.788-2.144 1.648-3.333 0.139-0.19 0.277-0.379 0.43-0.569zM25.295 16.98c0.146 0.19 0.292 0.379 0.43 0.569 0.853 1.189 1.415 2.334 1.641 3.333 0.233 0.992 0.153 1.809-0.233 2.473-0.379 0.664-1.050 1.145-2.028 1.444-0.977 0.292-2.247 0.387-3.705 0.241-0.233-0.029-0.474-0.058-0.707-0.088 0.452-1.437 0.795-3.027 1.007-4.734 1.371-1.043 2.582-2.13 3.596-3.238v0zM20.255 21.254c-0.212 1.247-0.496 2.407-0.831 3.465-1.087-0.233-2.232-0.569-3.421-1.014 0.737-0.357 1.459-0.744 2.166-1.152 0.715-0.408 1.408-0.839 2.086-1.298v0zM8.519 21.254c0.678 0.459 1.371 0.89 2.079 1.298s1.43 0.795 2.166 1.152c-1.182 0.445-2.334 0.78-3.414 1.014-0.343-1.058-0.627-2.217-0.832-3.465zM14.42 21.313l0.051 0.029 0.044-0.029h-0.095zM14.384 24.442c1.59 0.664 3.136 1.167 4.602 1.495-0.088 0.219-0.182 0.438-0.277 0.656-0.605 1.335-1.313 2.392-2.064 3.093-0.744 0.693-1.495 1.036-2.261 1.036s-1.517-0.343-2.261-1.036c-0.744-0.7-1.459-1.758-2.057-3.093-0.102-0.219-0.19-0.438-0.284-0.656 1.466-0.328 3.020-0.831 4.602-1.495v0z"></path>
</symbol>
<symbol id="icon-instagram" viewBox="0 0 32 32">
<path d="M16 8.49c-1.489 0-2.939 0.431-4.18 1.254-1.241 0.836-2.194 1.998-2.769 3.37-0.562 1.384-0.718 2.887-0.418 4.349 0.287 1.45 0.993 2.795 2.051 3.84 1.045 1.058 2.39 1.763 3.84 2.051 1.463 0.3 2.965 0.144 4.349-0.418 1.371-0.575 2.534-1.528 3.37-2.769 0.823-1.241 1.267-2.691 1.267-4.167 0-1.998-0.797-3.905-2.207-5.316s-3.318-2.194-5.303-2.194zM16 21.551c-1.11 0-2.181-0.327-3.095-0.94s-1.62-1.476-2.038-2.495c-0.418-1.019-0.536-2.129-0.313-3.2 0.209-1.084 0.745-2.077 1.515-2.847s1.763-1.306 2.847-1.515c1.071-0.222 2.181-0.104 3.2 0.313s1.881 1.123 2.495 2.038c0.614 0.914 0.94 1.985 0.94 3.096-0.013 1.463-0.601 2.873-1.633 3.918-1.045 1.032-2.456 1.62-3.918 1.633zM23.184 0h-14.367c-2.351 0-4.585 0.927-6.243 2.573-1.646 1.659-2.573 3.892-2.573 6.243v14.367c0 2.338 0.927 4.571 2.573 6.23 1.659 1.646 3.892 2.586 6.243 2.586h14.367c2.338 0 4.571-0.94 6.23-2.586 1.646-1.659 2.586-3.892 2.586-6.23v-14.367c0-2.351-0.94-4.585-2.586-6.243-1.659-1.646-3.892-2.573-6.23-2.573zM30.041 23.184c0 1.816-0.731 3.553-2.011 4.846-1.293 1.28-3.030 2.011-4.846 2.011h-14.367c-1.829 0-3.566-0.731-4.859-2.011-1.28-1.293-1.998-3.030-1.998-4.846v-14.367c0-1.829 0.718-3.566 1.998-4.859 1.293-1.28 3.030-1.998 4.859-1.998h14.367c1.816 0 3.553 0.718 4.846 1.998 1.28 1.293 2.011 3.030 2.011 4.859v14.367zM26.122 7.51c0 0.313-0.105 0.627-0.287 0.901-0.17 0.261-0.431 0.483-0.731 0.601-0.287 0.118-0.627 0.157-0.94 0.091s-0.601-0.222-0.836-0.444c-0.222-0.235-0.379-0.522-0.444-0.836s-0.026-0.64 0.091-0.94c0.118-0.3 0.34-0.562 0.601-0.731 0.274-0.183 0.588-0.274 0.914-0.274 0.431 0 0.836 0.17 1.149 0.47 0.3 0.313 0.483 0.718 0.483 1.162z"></path>
</symbol>
<symbol id="icon-facebook" viewBox="0 0 19 32">
<path d="M17.999 0.229c-1.543-0.16-3.086-0.24-4.628-0.229-5.12 0-8.308 3.257-8.308 8.514v3.566h-4.308c-0.206 0-0.389 0.080-0.537 0.229-0.137 0.137-0.217 0.331-0.217 0.537v5.863c0 0.206 0.080 0.4 0.217 0.537 0.149 0.149 0.331 0.229 0.537 0.229h4.308v11.759c0 0.206 0.080 0.4 0.217 0.537 0.149 0.149 0.343 0.229 0.549 0.229h6.057c0.206 0 0.4-0.080 0.537-0.229 0.149-0.137 0.229-0.331 0.229-0.537v-11.759h4.285c0.183 0 0.366-0.069 0.503-0.194s0.229-0.286 0.251-0.469l0.754-5.874c0.023-0.103 0.011-0.217-0.023-0.32s-0.080-0.194-0.16-0.274c-0.069-0.080-0.16-0.149-0.251-0.194-0.103-0.046-0.206-0.069-0.32-0.069h-5.040v-2.983c0-1.486 0.297-2.103 2.137-2.103h3.108c0.206 0 0.4-0.080 0.537-0.217 0.149-0.149 0.229-0.343 0.229-0.537v-5.257c0-0.183-0.069-0.354-0.194-0.503-0.114-0.137-0.286-0.229-0.469-0.251zM17.142 5.474h-2.354c-3.28 0-3.668 2.068-3.668 3.623v3.748c0 0.194 0.080 0.389 0.229 0.537 0.137 0.137 0.331 0.217 0.537 0.217h4.948l-0.571 4.343h-4.377c-0.206 0-0.4 0.080-0.537 0.229-0.149 0.137-0.229 0.331-0.229 0.537v11.759h-4.537v-11.759c0-0.206-0.080-0.4-0.217-0.537-0.149-0.149-0.343-0.229-0.537-0.229h-4.308v-4.343h4.308c0.194 0 0.389-0.080 0.537-0.217 0.137-0.149 0.217-0.343 0.217-0.537v-4.331c0-4.377 2.537-6.994 6.788-6.994 1.531 0 2.926 0.080 3.771 0.16v3.794z"></path>
</symbol>
<symbol id="icon-crown" viewBox="0 0 38 32">
<path d="M37.515 7.483c-0.339-0.313-0.75-0.509-1.179-0.572-0.438-0.063-0.884 0-1.286 0.196l-8.448 4.126c-0.045 0.027-0.080 0.036-0.125 0.045s-0.080 0-0.125-0.018c-0.045-0.009-0.080-0.036-0.107-0.063-0.036-0.027-0.063-0.063-0.080-0.107l-4.938-9.761c-0.205-0.402-0.5-0.741-0.857-0.973-0.357-0.241-0.768-0.357-1.188-0.357s-0.831 0.116-1.188 0.357c-0.357 0.232-0.652 0.572-0.857 0.973l-4.938 9.761c-0.018 0.045-0.045 0.080-0.080 0.107-0.027 0.027-0.071 0.054-0.107 0.063-0.045 0.018-0.080 0.027-0.125 0.018s-0.089-0.018-0.125-0.045l-8.457-4.126c-0.393-0.196-0.839-0.268-1.277-0.205-0.429 0.063-0.839 0.259-1.179 0.572-0.339 0.304-0.589 0.705-0.732 1.17-0.143 0.455-0.161 0.947-0.054 1.411l4.269 19.95c0.071 0.339 0.205 0.652 0.393 0.938 0.188 0.277 0.42 0.509 0.697 0.688 0.357 0.241 0.768 0.366 1.188 0.366 0.214 0 0.429-0.036 0.634-0.089 7.805-2.375 16.047-2.384 23.861-0.018 0.304 0.089 0.625 0.116 0.938 0.080 0.313-0.045 0.616-0.161 0.893-0.33 0.277-0.179 0.509-0.411 0.697-0.697 0.196-0.277 0.33-0.598 0.402-0.938l4.251-19.95c0.107-0.464 0.089-0.956-0.045-1.411s-0.384-0.857-0.723-1.161zM36.346 9.546l-4.269 19.941c-0.027 0.098-0.080 0.188-0.152 0.241-0.089 0.045-0.179 0.063-0.268 0.036-8.162-2.474-16.789-2.474-24.951 0-0.045 0.018-0.089 0.018-0.134 0.018-0.045-0.009-0.089-0.027-0.125-0.054-0.045-0.027-0.080-0.063-0.107-0.098-0.027-0.045-0.045-0.089-0.054-0.143l-4.269-19.941c-0.009-0.054-0.009-0.116 0-0.17 0.018-0.054 0.036-0.107 0.071-0.152s0.071-0.080 0.116-0.098c0.045-0.027 0.098-0.045 0.152-0.045l0.134 0.036 8.466 4.144c0.536 0.268 1.143 0.304 1.697 0.098s1.018-0.634 1.304-1.197l4.938-9.77c0.027-0.054 0.071-0.107 0.116-0.134 0.054-0.036 0.107-0.054 0.17-0.054s0.116 0.018 0.17 0.054c0.045 0.027 0.089 0.080 0.116 0.134l4.938 9.77c0.277 0.563 0.741 0.991 1.304 1.197 0.554 0.205 1.161 0.17 1.697-0.098l8.466-4.144c0.063-0.027 0.125-0.036 0.188-0.027s0.116 0.036 0.17 0.080c0.045 0.045 0.080 0.107 0.107 0.17 0.018 0.063 0.018 0.134 0.009 0.205zM25.54 23.54c-0.027 0.277-0.143 0.527-0.33 0.705-0.179 0.188-0.42 0.286-0.67 0.295h-0.098c-3.501-0.393-7.019-0.393-10.52 0-0.259 0.027-0.527-0.063-0.732-0.241s-0.339-0.447-0.375-0.741c-0.018-0.286 0.063-0.58 0.232-0.813 0.17-0.223 0.411-0.366 0.679-0.402 3.626-0.42 7.287-0.42 10.913 0 0.268 0.036 0.5 0.179 0.67 0.402s0.259 0.509 0.232 0.795z"></path>
</symbol>
<symbol id="icon-cosmetic" viewBox="0 0 41 32">
<path d="M13.38 10.376h-12.684c-0.381 0-0.696 0.296-0.696 0.677v4.053c0 0.372 0.315 0.677 0.696 0.677h0.706v15.535c0 0.372 0.315 0.677 0.706 0.677h9.861c0.391 0 0.706-0.305 0.706-0.677v-15.535h0.706c0.381 0 0.696-0.305 0.696-0.677v-4.053c0-0.381-0.315-0.677-0.696-0.677zM5.627 23.212v-1.354h4.225v-1.345h-4.225v-1.354h5.636v8.783h-5.636v-3.376h1.411v-1.354h-1.411zM11.263 17.805h-6.342c-0.381 0-0.696 0.305-0.696 0.677v10.137c0 0.372 0.315 0.677 0.696 0.677h6.342v1.345h-8.449v-14.858h8.449v2.022zM12.674 14.429h-11.272v-2.708h11.272v2.708z"></path>
<path d="M22.707 10.5v-4.94c0-0.381-0.315-0.696-0.706-0.696h-0.706v-3.481h1.411v-1.383h-7.744v1.383h4.93v3.481h-0.706c-0.391 0-0.706 0.315-0.706 0.696v4.94c-1.602 0.324-2.813 1.726-2.813 3.405v17.395c0 0.381 0.315 0.696 0.696 0.696h8.459c0.381 0 0.696-0.315 0.696-0.696v-17.395c0-1.678-1.211-3.080-2.813-3.405zM19.893 6.256h1.402v4.177h-1.402v-4.177zM19.188 11.825h2.813c1.163 0 2.117 0.935 2.117 2.079v0.696h-7.048v-0.696c0-1.144 0.954-2.079 2.117-2.079zM24.118 27.818h-7.048v-1.392h2.823v-1.383h-2.823v-9.050h7.048v11.825zM17.071 30.603v-1.392h7.048v1.392h-7.048z"></path>
<path d="M40.712 9.508h-11.883c-0.372 0-0.668 0.305-0.668 0.687v21.124c0 0.372 0.296 0.677 0.668 0.677h11.883c0.362 0 0.658-0.305 0.658-0.677v-21.124c0-0.381-0.296-0.687-0.658-0.687zM40.044 30.632h-10.557v-19.76h10.557v19.76z"></path>
<path d="M8.802 23.346h1.755v0.868h-1.755v-0.868z"></path>
<path d="M21.124 25.072h1.764v1.736h-1.764v-1.736z"></path>
<path d="M20.685 23.346c1.698 0 3.080-1.354 3.080-3.023s-1.383-3.033-3.080-3.033c-1.698 0-3.080 1.364-3.080 3.033s1.383 3.023 3.080 3.023zM20.685 18.806c0.849 0 1.535 0.677 1.535 1.516 0 0.83-0.687 1.507-1.535 1.507s-1.545-0.677-1.545-1.507c0-0.839 0.696-1.516 1.545-1.516z"></path>
<path d="M33.121 16.432h3.3c1.268 0 2.308-0.973 2.308-2.165s-1.039-2.165-2.308-2.165h-3.3c-1.278 0-2.317 0.973-2.317 2.165s1.040 2.165 2.317 2.165zM37.412 14.267c0 0.505-0.448 0.925-0.992 0.925h-0.992v-1.85h0.992c0.544 0 0.992 0.41 0.992 0.925zM33.121 13.342h0.982v1.85h-0.982c-0.553 0-0.992-0.42-0.992-0.925 0-0.515 0.439-0.925 0.992-0.925z"></path>
<path d="M33.121 23.346h3.3c1.268 0 2.308-1.163 2.308-2.594s-1.039-2.594-2.308-2.594h-3.3c-1.278 0-2.317 1.163-2.317 2.594s1.040 2.594 2.317 2.594zM37.412 20.752c0 0.61-0.448 1.116-0.992 1.116h-0.992v-2.232h0.992c0.544 0 0.992 0.505 0.992 1.116zM33.121 19.636h0.982v2.232h-0.982c-0.553 0-0.992-0.505-0.992-1.116s0.439-1.116 0.992-1.116z"></path>
<path d="M33.121 29.402h3.3c1.268 0 2.308-1.163 2.308-2.594s-1.039-2.594-2.308-2.594h-3.3c-1.278 0-2.317 1.163-2.317 2.594s1.040 2.594 2.317 2.594zM37.412 26.808c0 0.61-0.448 1.106-0.992 1.106h-0.992v-2.222h0.992c0.544 0 0.992 0.505 0.992 1.116zM33.121 25.692h0.982v2.222h-0.982c-0.553 0-0.992-0.496-0.992-1.106s0.439-1.116 0.992-1.116z"></path>
</symbol>
<symbol id="icon-arrow" viewBox="0 0 43 32">
<path d="M5.789 15.997l11.89-11.89c0.961-0.961 0.961-2.45 0-3.411-0.937-0.937-2.426-0.937-3.387 0l-13.595 13.595c-0.937 0.961-0.937 2.45 0 3.387l13.595 13.595c0.961 0.961 2.45 0.961 3.387 0 0.961-0.961 0.961-2.45 0-3.387l-11.89-11.89z"></path>
<path d="M8.191 13.595l9.488-9.488c0.961-0.961 0.961-2.45 0-3.411-0.937-0.937-2.426-0.937-3.387 0l-13.595 13.595c-0.937 0.961-0.937 2.45 0 3.387l13.595 13.595c0.961 0.961 2.45 0.961 3.387 0 0.961-0.961 0.961-2.45 0-3.387l-9.488-9.488h34.469v-4.804h-34.469z"></path>
</symbol>
</defs>
</svg>
