<svg width="71.408691" height="35.496582" viewBox="0 0 71.4087 35.4966" fill="none" xmlns="http://www.w3.org/2000/svg" xmlns:xlink="http://www.w3.org/1999/xlink">
	<desc>
			Created with Pixso.
	</desc>
	<defs/>
	<path id="logo" d="M6.44 0L0.66 0L0.66 14.27L6.6 14.27Q9.5 14.27 10.88 13.55Q11.44 13.26 11.77 12.8Q12.27 12.12 12.27 11.08L12.27 8.88Q12.27 8.71 12.23 8.54Q12.11 7.97 11.58 7.49Q11.03 7 10.41 6.83Q10.23 6.79 10.05 6.77L10.05 6.66Q10.23 6.61 10.39 6.52Q10.81 6.32 11.16 5.94Q11.56 5.48 11.62 4.99Q11.63 4.9 11.63 4.81L11.63 3.05Q11.63 1.89 11.17 1.24Q10.71 0.59 9.6 0.29Q8.49 0 6.44 0ZM56.25 14.42Q56.8 14.49 57.61 14.49Q58.36 14.49 59.39 14.38L59.39 12.38Q58.56 12.49 58.25 12.49Q57.48 12.49 57.11 12.33Q56.92 12.25 56.8 12.11Q56.67 11.97 56.6 11.77Q56.47 11.39 56.47 10.62L56.47 5.6L59.39 5.6L59.39 3.63L56.47 3.63L56.47 0.54L53.25 0.54L53.25 3.63L51.1 3.63L51.1 5.6L53.25 5.6L53.25 11.17Q53.25 12 53.52 12.64Q53.76 13.26 54.15 13.62Q54.53 13.97 55.15 14.16Q55.7 14.36 56.25 14.42ZM7.65 5.67Q7.26 5.8 6.44 5.8L4.09 5.8L4.09 2.43L6.38 2.43Q7.26 2.43 7.66 2.55Q8.06 2.65 8.19 2.9Q8.19 2.9 8.2 2.91Q8.33 3.16 8.33 3.67L8.33 4.37Q8.33 4.94 8.19 5.24Q8.17 5.28 8.15 5.31Q8 5.55 7.65 5.67ZM14.6 12.66Q15.72 14.49 19.84 14.49Q22.06 14.49 24.02 14.07L24.02 12.03Q22.04 12.49 20.45 12.49Q18.74 12.49 18.08 12.1Q17.87 11.97 17.73 11.79Q17.42 11.4 17.42 10.77L17.42 9.81L24.33 9.81L24.33 7.21Q24.33 5.39 23.42 4.5Q23.29 4.38 23.15 4.28Q21.97 3.41 19.44 3.41Q16.76 3.41 15.47 4.31Q15.18 4.51 14.95 4.77Q14.19 5.66 14.19 7.21L14.19 11.04Q14.19 11.98 14.6 12.66ZM27.57 14.22Q28.31 14.49 29.8 14.49Q31.59 14.49 32.22 14.21Q32.44 14.12 32.63 13.98Q32.99 13.73 33.23 13.3L33.23 14.27L36.38 14.27L36.38 6.95Q36.38 5.52 35.9 4.77Q35.87 4.73 35.85 4.69Q35.36 4 34.3 3.71Q33.19 3.41 31.15 3.41Q28.81 3.41 27.07 3.63L27.07 5.65Q29.45 5.38 30.82 5.38Q31.81 5.38 32.3 5.52Q32.76 5.64 32.95 5.93Q32.97 5.95 32.98 5.98Q33.17 6.31 33.17 6.99L33.17 7.71L29.56 7.71Q28.31 7.71 27.6 8.04Q27.27 8.18 27.02 8.41Q26.73 8.69 26.56 9.08Q26.24 9.81 26.24 11.08Q26.24 12.51 26.54 13.23Q26.68 13.57 26.92 13.81Q27.18 14.07 27.57 14.22ZM40.02 13.76Q40.85 14.49 42.89 14.49Q45.52 14.49 46.15 13.37Q46.25 13.19 46.3 12.97L46.3 14.27L49.47 14.27L49.47 3.63L46.26 3.63L46.26 11Q46.26 11.63 46.1 11.94Q46.09 11.97 46.07 12Q45.91 12.26 45.51 12.37Q45.07 12.49 44.13 12.49Q43.38 12.49 43.01 12.36Q42.75 12.26 42.61 12.07Q42.56 12 42.53 11.92Q42.41 11.61 42.41 11L42.41 3.63L39.2 3.63L39.2 11.44Q39.2 12.96 39.96 13.7Q39.99 13.73 40.02 13.76ZM60.01 3.63L64.25 14.19L62.32 18.85L65.58 18.85L71.4 3.63L68.08 3.63L65.9 11.15L63.51 3.63L60.01 3.63ZM21.27 6.44L21.27 7.98L17.42 7.98L17.42 6.44Q17.42 6.19 17.52 6Q17.62 5.79 17.84 5.65Q18.23 5.38 19.4 5.38Q20.41 5.38 20.84 5.65Q21.04 5.77 21.14 5.94Q21.27 6.15 21.27 6.44ZM8.31 11.54Q7.78 11.83 6.53 11.83L4.09 11.83L4.09 8.02L6.99 8.02Q8.02 8.02 8.43 8.36Q8.44 8.37 8.46 8.38Q8.84 8.72 8.84 9.47L8.84 10.62Q8.84 10.98 8.67 11.23Q8.54 11.42 8.31 11.54ZM32.45 12.42Q32.03 12.49 31.06 12.49Q30.24 12.49 29.92 12.4Q29.73 12.35 29.62 12.23Q29.54 12.14 29.49 12.03Q29.38 11.74 29.38 11.02Q29.38 10.27 29.49 9.97Q29.55 9.82 29.65 9.72Q29.76 9.63 29.91 9.58Q30.22 9.47 30.97 9.47L33.17 9.47L33.17 11.54Q33.17 11.85 33.08 12Q32.99 12.2 32.87 12.29Q32.75 12.38 32.45 12.42ZM7.43 23.43L0 33.18L0 35.27L11.78 35.27L11.78 32.81L4.22 32.81L11.66 23.06L11.66 21L0.22 21L0.22 23.43L7.43 23.43ZM17.46 35.42Q18.1 35.49 19.09 35.49Q20.01 35.49 20.67 35.43Q21.4 35.36 22.15 35.13Q22.92 34.9 23.36 34.52Q23.86 34.11 24.18 33.36Q24.5 32.61 24.5 31.62L24.5 28.47Q24.5 27.38 24.17 26.58Q23.82 25.81 23.33 25.39Q22.83 24.98 22.04 24.73Q21.31 24.51 20.7 24.46Q20.1 24.41 19.09 24.41Q18.41 24.41 17.57 24.45Q16.85 24.51 16.09 24.77Q15.33 25.02 14.87 25.39Q14.34 25.83 14.01 26.63Q13.68 27.42 13.68 28.47L13.68 31.62Q13.68 32.66 14.01 33.38Q14.34 34.13 14.82 34.54Q15.31 34.94 16.1 35.16Q16.83 35.36 17.46 35.42ZM30.18 24.63L27.01 24.63L27.01 35.27L30.22 35.27L30.22 27.88Q30.22 27.24 30.38 26.94Q30.4 26.89 30.43 26.85Q30.6 26.61 30.97 26.51Q31.41 26.38 32.35 26.38Q33.11 26.38 33.47 26.52Q33.72 26.61 33.86 26.79Q33.91 26.87 33.95 26.96Q34.07 27.26 34.07 27.88L34.07 35.27L37.28 35.27L37.28 27.46Q37.28 25.94 36.53 25.21Q36.49 25.17 36.46 25.14Q35.64 24.41 33.59 24.41Q30.97 24.41 30.33 25.53Q30.23 25.71 30.18 25.92L30.18 24.63ZM40.21 33.66Q41.33 35.49 45.44 35.49Q47.67 35.49 49.63 35.07L49.63 33.03Q47.65 33.49 46.06 33.49Q44.35 33.49 43.69 33.1Q43.48 32.97 43.33 32.79Q43.03 32.4 43.03 31.77L43.03 30.81L49.93 30.81L49.93 28.21Q49.93 26.39 49.03 25.5Q48.9 25.38 48.76 25.28Q47.58 24.41 45.05 24.41Q42.37 24.41 41.08 25.31Q40.78 25.51 40.56 25.78Q39.79 26.66 39.79 28.21L39.79 32.04Q39.79 32.98 40.21 33.66ZM20.45 33.35Q19.99 33.49 19.09 33.49Q18.19 33.49 17.72 33.35Q17.26 33.2 17.07 32.9Q16.89 32.59 16.89 32L16.89 27.97Q16.89 27.14 17.3 26.78Q17.33 26.76 17.35 26.74Q17.82 26.38 19.09 26.38Q20.37 26.38 20.83 26.74Q20.85 26.76 20.88 26.78Q21.29 27.14 21.29 27.97L21.29 32Q21.29 32.59 21.1 32.9Q20.91 33.2 20.45 33.35ZM46.88 27.44L46.88 28.98L43.03 28.98L43.03 27.44Q43.03 27.19 43.13 27Q43.23 26.79 43.45 26.65Q43.84 26.38 45.01 26.38Q46.02 26.38 46.45 26.65Q46.64 26.77 46.75 26.94Q46.88 27.15 46.88 27.44Z" fill="#2B7FFF" fill-opacity="1.000000" fill-rule="evenodd"/>
</svg>
