<svg width="39.453613" height="43.872314" viewBox="0 0 39.4536 43.8723" fill="none" xmlns="http://www.w3.org/2000/svg" xmlns:xlink="http://www.w3.org/1999/xlink">
	<desc>
			Created with Pixso.
	</desc>
	<defs/>
	<path id="Vector" d="M19.72 0C18.15 0 16.68 0.71 15.42 1.89C14.17 3.06 13.1 4.7 12.2 6.68C12.01 7.09 11.83 7.53 11.66 7.97C11.2 7.9 10.74 7.84 10.27 7.79C9.73 7.74 9.2 7.7 8.69 7.69C7.15 7.65 5.75 7.81 4.51 8.18C2.87 8.68 1.51 9.6 0.72 10.96C-0.06 12.33 -0.18 13.96 0.21 15.63C0.6 17.3 1.48 19.05 2.75 20.82C3.02 21.19 3.3 21.56 3.6 21.93C3.31 22.29 3.03 22.66 2.75 23.04C1.48 24.81 0.6 26.56 0.21 28.23C-0.18 29.9 -0.06 31.53 0.72 32.9C1.51 34.26 2.87 35.18 4.51 35.68C6.16 36.17 8.11 36.29 10.27 36.07C10.73 36.02 11.19 35.96 11.66 35.89C11.83 36.33 12.01 36.76 12.2 37.18C13.1 39.17 14.17 40.8 15.42 41.98C16.68 43.15 18.15 43.87 19.72 43.87C21.3 43.87 22.77 43.15 24.02 41.98C25.28 40.8 26.35 39.17 27.24 37.18C27.44 36.76 27.62 36.33 27.78 35.89C28.25 35.96 28.72 36.02 29.17 36.07C31.33 36.29 33.29 36.17 34.93 35.68C36.57 35.18 37.93 34.26 38.72 32.9C39.51 31.53 39.62 29.9 39.23 28.23C38.84 26.56 37.96 24.81 36.69 23.04C36.42 22.66 36.13 22.29 35.84 21.93C36.13 21.57 36.42 21.2 36.69 20.82C37.96 19.05 38.84 17.3 39.23 15.63C39.62 13.96 39.51 12.33 38.72 10.96C37.93 9.6 36.58 8.68 34.93 8.18C33.7 7.81 32.29 7.65 30.75 7.69C30.24 7.7 29.71 7.74 29.17 7.79C28.72 7.84 28.25 7.9 27.78 7.97C27.61 7.54 27.43 7.1 27.24 6.68C26.35 4.7 25.28 3.06 24.02 1.89C22.77 0.71 21.3 0 19.72 0L19.72 0ZM19.72 1.75C20.77 1.75 21.8 2.21 22.82 3.17C23.85 4.12 24.82 5.57 25.65 7.4C25.78 7.7 25.91 8 26.03 8.3C24.02 8.75 21.9 9.44 19.72 10.35C17.55 9.44 15.42 8.75 13.41 8.3C13.54 7.99 13.67 7.69 13.8 7.4C14.62 5.57 15.6 4.12 16.62 3.17C17.64 2.21 18.67 1.75 19.72 1.75L19.72 1.75ZM8.14 9.44C8.31 9.44 8.48 9.44 8.65 9.44C9.12 9.45 9.6 9.48 10.1 9.53C10.42 9.57 10.74 9.61 11.08 9.65C10.46 11.62 9.99 13.8 9.69 16.14C7.81 17.56 6.16 19.06 4.77 20.58C4.56 20.32 4.37 20.06 4.17 19.79C3 18.16 2.24 16.6 1.92 15.23C1.6 13.87 1.72 12.75 2.24 11.84C2.77 10.93 3.68 10.27 5.02 9.86C5.9 9.59 6.95 9.45 8.14 9.44L8.14 9.44ZM31.31 9.44C32.49 9.45 33.54 9.59 34.42 9.86C35.76 10.27 36.68 10.93 37.2 11.84C37.73 12.75 37.84 13.87 37.52 15.23C37.21 16.6 36.44 18.16 35.27 19.79C35.08 20.06 34.88 20.32 34.68 20.58C33.29 19.06 31.63 17.57 29.75 16.14C29.46 13.8 28.99 11.62 28.37 9.65C28.7 9.61 29.03 9.57 29.34 9.53C29.83 9.48 30.31 9.45 30.79 9.44C30.96 9.44 31.14 9.44 31.31 9.44L31.31 9.44ZM26.63 9.97C27.09 11.42 27.48 13.01 27.77 14.72C26.84 14.09 25.89 13.5 24.91 12.94C23.94 12.38 22.95 11.85 21.94 11.36C23.57 10.75 25.14 10.29 26.63 9.97L26.63 9.97ZM12.82 9.97C14.3 10.29 15.88 10.75 17.5 11.36C16.49 11.85 15.5 12.38 14.53 12.94C13.56 13.5 12.61 14.09 11.68 14.72C11.97 13.01 12.35 11.42 12.82 9.97ZM19.72 12.26C21.15 12.89 22.59 13.62 24.04 14.45C25.48 15.29 26.84 16.18 28.1 17.1C28.26 18.65 28.35 20.27 28.35 21.93C28.35 23.6 28.26 25.22 28.1 26.76C26.84 27.68 25.48 28.57 24.04 29.4C22.6 30.24 21.15 30.97 19.72 31.6C18.3 30.97 16.85 30.24 15.41 29.4C13.96 28.57 12.61 27.68 11.35 26.76C11.18 25.22 11.09 23.6 11.09 21.93C11.09 20.26 11.18 18.65 11.35 17.1C12.61 16.18 13.96 15.29 15.41 14.45C16.85 13.62 18.3 12.89 19.72 12.26L19.72 12.26ZM19.84 14.9L14.82 17.99L19.84 21.09L24.86 17.99L19.84 14.9L19.84 14.9ZM9.46 18.57C9.38 19.69 9.34 20.81 9.34 21.93C9.34 23.07 9.38 24.2 9.46 25.29C8.12 24.19 6.93 23.06 5.91 21.93C6.93 20.8 8.12 19.67 9.46 18.57ZM29.99 18.57C31.32 19.67 32.51 20.8 33.53 21.93C32.51 23.06 31.32 24.19 29.99 25.29C30.07 24.17 30.11 23.05 30.11 21.93C30.11 20.79 30.07 19.66 29.99 18.57L29.99 18.57ZM13.69 19.35L13.69 25.47L18.96 28.72L18.96 22.61L13.69 19.35ZM25.98 19.36L20.71 22.61L20.71 28.72L25.98 25.47L25.98 19.36L25.98 19.36ZM4.77 23.28C6.16 24.8 7.81 26.3 9.69 27.72C9.99 30.06 10.46 32.24 11.08 34.21C10.75 34.25 10.42 34.29 10.1 34.33C8.1 34.53 6.36 34.4 5.02 34C3.68 33.59 2.77 32.93 2.24 32.02C1.72 31.11 1.6 29.99 1.92 28.63C2.24 27.26 3 25.69 4.18 24.06C4.37 23.8 4.56 23.54 4.77 23.28ZM34.68 23.28C34.88 23.54 35.08 23.8 35.27 24.06C36.44 25.69 37.21 27.26 37.52 28.63C37.84 29.99 37.73 31.11 37.2 32.02C36.68 32.93 35.76 33.59 34.42 34C33.08 34.4 31.34 34.53 29.34 34.33C29.02 34.29 28.69 34.25 28.37 34.21C28.99 32.24 29.46 30.06 29.75 27.72C31.63 26.29 33.29 24.8 34.68 23.28L34.68 23.28ZM27.77 29.14C27.48 30.85 27.09 32.44 26.63 33.89C25.14 33.57 23.57 33.11 21.94 32.5C22.95 32.01 23.94 31.48 24.91 30.92C25.89 30.36 26.84 29.77 27.77 29.14L27.77 29.14ZM11.68 29.14C12.61 29.77 13.56 30.36 14.53 30.92C15.5 31.48 16.49 32.01 17.5 32.5C15.88 33.11 14.3 33.57 12.82 33.89C12.35 32.44 11.96 30.85 11.68 29.14ZM19.77 29.22L19.84 29.26L19.9 29.22L19.77 29.22L19.77 29.22ZM19.72 33.51C21.9 34.42 24.02 35.11 26.03 35.56C25.91 35.86 25.78 36.16 25.65 36.46C24.82 38.29 23.85 39.74 22.82 40.7C21.8 41.65 20.77 42.12 19.72 42.12C18.67 42.12 17.64 41.65 16.62 40.7C15.6 39.74 14.62 38.29 13.8 36.46C13.66 36.16 13.54 35.86 13.41 35.56C15.42 35.11 17.55 34.42 19.72 33.51L19.72 33.51Z" fill="#2B7FFF" fill-opacity="1.000000" fill-rule="nonzero"/>
</svg>
